<?xml version="1.0" encoding="UTF-8" standalone="no"?>
<!-- Created with Inkscape (http://www.inkscape.org/) -->

<svg
   width="505.18799mm"
   height="94.290482mm"
   viewBox="0 0 1790.0362 334.10013"
   id="svg8560"
   version="1.1"
   inkscape:version="1.3.2 (1:1.3.2+202311252150+091e20ef0f)"
   sodipodi:docname="logos_UFPEL_DME.svg"
   xmlns:inkscape="http://www.inkscape.org/namespaces/inkscape"
   xmlns:sodipodi="http://sodipodi.sourceforge.net/DTD/sodipodi-0.dtd"
   xmlns="http://www.w3.org/2000/svg"
   xmlns:svg="http://www.w3.org/2000/svg"
   xmlns:rdf="http://www.w3.org/1999/02/22-rdf-syntax-ns#"
   xmlns:cc="http://creativecommons.org/ns#"
   xmlns:dc="http://purl.org/dc/elements/1.1/">
  <defs
     id="defs8562" />
  <sodipodi:namedview
     id="base"
     pagecolor="#ffffff"
     bordercolor="#666666"
     borderopacity="1.0"
     inkscape:pageopacity="0.0"
     inkscape:pageshadow="2"
     inkscape:zoom="0.33905646"
     inkscape:cx="657.70757"
     inkscape:cy="-171.06296"
     inkscape:document-units="px"
     inkscape:current-layer="g3896"
     showgrid="false"
     fit-margin-top="0"
     fit-margin-left="0"
     fit-margin-right="0"
     fit-margin-bottom="0"
     showguides="true"
     inkscape:guide-bbox="true"
     inkscape:window-width="1920"
     inkscape:window-height="1016"
     inkscape:window-x="0"
     inkscape:window-y="27"
     inkscape:window-maximized="1"
     inkscape:showpageshadow="2"
     inkscape:pagecheckerboard="0"
     inkscape:deskcolor="#d1d1d1">
    <sodipodi:guide
       position="474.58489,-0.30674792"
       orientation="0,1"
       id="guide9390"
       inkscape:locked="false" />
    <sodipodi:guide
       position="494.35926,334.20967"
       orientation="0,1"
       id="guide9392"
       inkscape:locked="false" />
  </sodipodi:namedview>
  <metadata
     id="metadata8565">
    <rdf:RDF>
      <cc:Work
         rdf:about="">
        <dc:format>image/svg+xml</dc:format>
        <dc:type
           rdf:resource="http://purl.org/dc/dcmitype/StillImage" />
      </cc:Work>
    </rdf:RDF>
  </metadata>
  <g
     inkscape:label="Layer 1"
     inkscape:groupmode="layer"
     id="layer1"
     transform="translate(1397.2458,194.01829)">
    <g
       id="g3896"
       transform="matrix(1.3019162,0,0,1.3019162,-1503.0393,-301.95028)"
       inkscape:label="UFPel"
       sodipodi:insensitive="true">
      <circle
         id="circle3898"
         r="96.638"
         cy="212.692"
         cx="212.39"
         style="fill:#004c98" />
      <path
         id="path3900"
         d="m 223.422,189.205 h -10.397 -11.888 c -0.617,-2.404 -0.944,-4.925 -0.944,-7.521 0,-2.656 0.345,-5.229 0.988,-7.685 0.006,-0.004 0.012,-0.007 0.018,-0.011 1.19,-4.516 3.388,-8.622 6.355,-12.05 -0.302,0.481 -0.481,1.045 -0.481,1.655 0,1.108 0.576,2.078 1.443,2.638 1.229,-1.881 2.251,-3.91 3.043,-6.051 0.099,-0.263 0.187,-0.53 0.276,-0.797 0.163,-0.484 0.321,-0.974 0.461,-1.469 0.586,-2.07 0.973,-4.227 1.1,-6.454 0.011,0.014 0.021,0.026 0.03,0.04 3.049,3.894 5.146,8.56 5.984,13.648 0.009,0.016 0.019,0.031 0.028,0.046 0.26,1.597 0.4,3.232 0.4,4.902 0,0.568 -0.019,1.131 -0.05,1.692 -0.109,1.995 -0.412,3.938 -0.891,5.812 0.452,0.254 0.969,0.412 1.524,0.412 1.736,0 3.145,-1.409 3.145,-3.145 0,-0.059 -0.015,-0.111 -0.018,-0.169 0.53,2.242 0.815,4.579 0.815,6.983 0.003,2.599 -0.325,5.12 -0.941,7.524 z"
         inkscape:connector-curvature="0"
         style="fill:#c4161c" />
      <g
         id="g3902">
        <path
           id="path3904"
           d="m 124.585,286.554 c -1.06,0.93 -1.286,2.51 -0.355,3.57 0.949,1.085 2.521,1.048 3.581,0.115 1.082,-0.949 1.284,-2.471 0.335,-3.553 -0.931,-1.064 -2.479,-1.083 -3.561,-0.132 z"
           inkscape:connector-curvature="0"
           style="fill:#004c98" />
        <path
           id="path3906"
           d="m 104.967,252.784 -11.73,5.205 1.864,4.218 11.362,-5.04 c 2.104,-0.936 3.896,-1.225 4.63,0.438 0.734,1.662 -0.684,2.795 -2.787,3.729 l -11.362,5.04 1.876,4.244 11.73,-5.201 c 4.13,-1.835 6.646,-4.967 4.63,-9.529 -2.019,-4.564 -6.11,-4.924 -10.213,-3.104 z"
           inkscape:connector-curvature="0"
           style="fill:#004c98" />
        <polygon
           id="polygon3908"
           points="88.3,241.071 100.468,237.903 100.49,237.987 89.444,245.631 90.68,250.553 110.43,245.558 109.426,241.558 97.431,244.712 97.409,244.625 108.282,236.999 107.081,232.216 87.33,237.211 "
           style="fill:#004c98" />
        <polygon
           id="polygon3910"
           points="86.352,230.286 106.574,227.84 106.024,223.229 85.803,225.677 "
           style="fill:#004c98" />
        <polygon
           id="polygon3912"
           points="85.12,210.367 100.071,213.038 100.071,213.095 85.212,215.931 85.297,221.149 105.588,216.127 105.492,210.274 85.039,205.349 "
           style="fill:#004c98" />
        <polygon
           id="polygon3914"
           points="94.373,196.053 90.414,195.487 91.175,190.09 87.159,189.516 85.781,199.281 105.945,202.166 107.372,192.057 103.3,191.475 102.49,197.214 98.131,196.59 98.834,191.623 95.074,191.085 "
           style="fill:#004c98" />
        <path
           id="path3916"
           d="m 109.389,184.063 -7.784,-2.284 0.379,-1.3 8.551,-0.345 1.366,-4.678 -9.701,0.79 c -0.07,-1.404 -1.235,-3.367 -4.134,-4.218 -3.892,-1.143 -6.525,0.487 -7.632,4.28 l -1.833,6.281 19.543,5.734 z m -10.524,-4.5 -0.379,1.301 -4.942,-1.45 0.405,-1.384 c 0.298,-1.024 1.104,-2.14 3.091,-1.556 1.766,0.518 2.188,1.844 1.825,3.089 z"
           inkscape:connector-curvature="0"
           style="fill:#004c98" />
        <path
           id="path3918"
           d="m 112.223,160.06 c -3.214,-1.484 -5.568,0.126 -7.188,1.443 -1.445,1.143 -2.302,1.7 -3.452,1.17 -1.358,-0.628 -1.498,-1.771 -1.063,-2.714 0.409,-0.891 1.235,-1.588 2.258,-1.88 l -2.083,-3.596 c -1.644,0.542 -3.108,1.866 -4.036,3.884 -1.241,2.698 -0.875,6.518 3.228,8.411 3.082,1.423 5.106,0.325 7.026,-1.233 1.52,-1.235 2.519,-1.822 3.718,-1.268 1.177,0.543 1.521,1.653 1.052,2.677 -0.494,1.072 -1.562,1.945 -2.759,2.345 l 2.146,3.596 c 1.629,-0.582 3.487,-2.073 4.511,-4.299 1.398,-3.039 0.639,-6.692 -3.358,-8.536 z"
           inkscape:connector-curvature="0"
           style="fill:#004c98" />
        <polygon
           id="polygon3920"
           points="121.853,155.726 104.37,145.248 101.991,149.231 119.474,159.708 "
           style="fill:#004c98" />
        <path
           id="path3922"
           d="m 124.866,134.525 c -4.94,-3.872 -9.681,-4.257 -13.282,0.351 l -3.528,4.518 16.045,12.578 3.528,-4.519 c 3.582,-4.585 2.087,-9.126 -2.763,-12.928 z m -0.375,10.395 -0.691,0.887 -9.698,-7.604 0.69,-0.886 c 1.365,-1.748 4,-1.659 7.218,0.863 3.105,2.435 3.847,4.992 2.481,6.74 z"
           inkscape:connector-curvature="0"
           style="fill:#004c98" />
        <path
           id="path3924"
           d="m 127.827,117.362 -4.23,3.949 10.259,18.323 3.369,-3.145 -1.918,-3.293 3.346,-3.125 3.14,2.153 3.518,-3.283 z m 5.425,12.865 -4.638,-7.531 0.084,-0.078 7.102,5.231 z"
           inkscape:connector-curvature="0"
           style="fill:#004c98" />
        <path
           id="path3926"
           d="m 152.31,124.087 c 4.831,-3.235 4.827,-8.021 1.412,-13.154 -3.48,-5.229 -7.859,-7.082 -12.715,-3.83 l -4.759,3.188 11.302,16.985 z m -9.02,-13.657 c 1.842,-1.233 4.314,-0.323 6.581,3.084 2.188,3.285 2.093,5.95 0.252,7.184 l -0.932,0.623 -6.833,-10.267 z"
           inkscape:connector-curvature="0"
           style="fill:#004c98" />
        <polygon
           id="polygon3928"
           points="161.367,104.704 159.663,101.079 164.58,98.752 162.851,95.073 153.955,99.282 162.634,117.755 171.842,113.398 170.089,109.668 164.861,112.141 162.985,108.15 167.511,106.007 165.893,102.563 "
           style="fill:#004c98" />
        <polygon
           id="polygon3930"
           points="187.531,95.989 182.824,97.206 181.788,93.188 186.911,91.86 185.867,87.813 176.259,90.299 181.358,110.063 185.871,108.896 183.84,101.023 188.518,99.814 "
           style="fill:#004c98" />
        <polygon
           id="polygon3932"
           points="201.845,89.556 201.327,85.521 191.57,86.771 194.171,107.02 204.27,105.729 203.745,101.638 198.01,102.372 197.448,97.995 202.413,97.36 201.927,93.585 196.963,94.22 196.453,90.244 "
           style="fill:#004c98" />
        <path
           id="path3934"
           d="m 214.199,85.161 -5.723,-0.122 -0.438,20.411 5.724,0.123 c 5.809,0.126 8.539,-3.797 8.672,-9.966 0.134,-6.284 -2.398,-10.32 -8.235,-10.446 z m -0.294,16.379 -1.121,-0.025 0.264,-12.339 1.122,0.024 c 2.215,0.047 3.722,2.213 3.635,6.309 -0.085,3.949 -1.685,6.079 -3.9,6.031 z"
           inkscape:connector-curvature="0"
           style="fill:#004c98" />
        <polygon
           id="polygon3936"
           points="232.936,90.936 238.293,91.85 238.977,87.843 229.28,86.188 225.852,106.31 235.887,108.023 236.58,103.96 230.882,102.986 231.622,98.638 236.556,99.48 237.194,95.729 232.262,94.888 "
           style="fill:#004c98" />
        <path
           id="path3938"
           d="m 246.241,102.507 1.287,0.418 0.111,8.58 4.626,1.495 -0.523,-9.744 c 1.4,-0.032 3.392,-1.146 4.318,-4.028 1.244,-3.869 -0.312,-6.553 -4.061,-7.767 l -6.215,-2.008 -6.249,19.431 4.215,1.363 z m 2.578,-8.013 1.368,0.443 c 1.013,0.327 2.104,1.164 1.468,3.139 -0.565,1.757 -1.897,2.145 -3.13,1.747 l -1.287,-0.416 z"
           inkscape:connector-curvature="0"
           style="fill:#004c98" />
        <path
           id="path3940"
           d="m 258.341,115.901 2.438,-2.927 4.068,2.097 -0.952,3.69 4.271,2.203 4.925,-20.417 -5.143,-2.649 -13.701,15.893 z m 10.014,-12.8 0.103,0.054 -2.495,8.472 -3.097,-1.595 z"
           inkscape:connector-curvature="0"
           style="fill:#004c98" />
        <polygon
           id="polygon3942"
           points="278.631,128.427 281.08,124.937 276.635,121.797 285.902,108.593 282.091,105.901 270.374,122.599 "
           style="fill:#004c98" />
        <path
           id="path3944"
           d="m 304.619,124.838 -3.914,-4.19 -14.87,13.951 3.914,4.189 c 3.975,4.253 8.683,3.471 13.176,-0.745 4.579,-4.295 5.687,-8.931 1.694,-13.205 z m -4.861,9.815 c -2.877,2.699 -5.515,3.039 -7.028,1.418 l -0.768,-0.821 8.988,-8.432 0.77,0.819 c 1.513,1.623 1.021,4.217 -1.962,7.016 z"
           inkscape:connector-curvature="0"
           style="fill:#004c98" />
        <polygon
           id="polygon3946"
           points="314.425,136.362 297.667,147.969 303.462,156.362 306.847,154.018 303.557,149.252 307.179,146.744 310.026,150.87 313.15,148.706 310.303,144.58 313.593,142.301 316.687,146.782 320.023,144.47 "
           style="fill:#004c98" />
        <path
           id="path3948"
           d="m 316.971,166.444 0.782,1.83 c 1.191,2.783 4.244,4.795 8.421,3.001 4.468,-1.919 4.553,-5.596 3.405,-8.273 l -2.496,-5.829 -18.714,8.044 1.78,4.159 z m 8.326,-3.577 0.578,1.352 c 0.5,1.166 0.185,2.4 -1.481,3.116 -1.611,0.692 -2.907,0.15 -3.407,-1.016 l -0.578,-1.351 z"
           inkscape:connector-curvature="0"
           style="fill:#004c98" />
        <polygon
           id="polygon3950"
           points="327.22,180.665 331.074,179.599 332.519,184.854 336.43,183.771 333.815,174.263 314.182,179.696 316.886,189.539 320.852,188.442 319.315,182.854 323.56,181.679 324.888,186.517 328.549,185.503 "
           style="fill:#004c98" />
        <polygon
           id="polygon3952"
           points="318.991,203.226 323.204,202.619 322.436,197.223 338.376,194.922 337.719,190.296 317.564,193.204 "
           style="fill:#004c98" />
        <path
           id="path3954"
           d="m 329.609,205.396 c -6.474,-0.029 -10.839,2.95 -10.918,7.792 -0.079,4.843 4.188,7.86 10.662,7.891 6.444,0.029 10.724,-2.95 10.803,-7.793 0.08,-4.901 -4.101,-7.861 -10.547,-7.89 z m -0.178,10.957 c -3.54,-0.018 -6.257,-1.068 -6.223,-3.145 0.034,-2.104 2.784,-3.101 6.323,-3.085 3.54,0.016 6.199,1.039 6.165,3.144 -0.034,2.075 -2.726,3.099 -6.265,3.086 z"
           inkscape:connector-curvature="0"
           style="fill:#004c98" />
        <polygon
           id="polygon3956"
           points="317.737,230.845 334.01,233.296 333.458,237.006 337.327,237.587 339.096,225.694 335.228,225.11 334.676,228.819 318.403,226.366 "
           style="fill:#004c98" />
        <path
           id="path3958"
           d="m 316.062,238.937 3.341,1.819 -1.251,4.41 -3.797,-0.213 -1.314,4.633 20.936,0.841 1.582,-5.576 -18.236,-10.354 z m 6.629,3.296 7.855,4.037 -0.031,0.113 -8.775,-0.795 z"
           inkscape:connector-curvature="0"
           style="fill:#004c98" />
        <path
           id="path3960"
           d="m 325.086,258.14 c -3.089,-1.41 -5.107,-0.308 -7.021,1.26 -1.513,1.242 -2.509,1.832 -3.714,1.283 -1.179,-0.539 -1.526,-1.65 -1.062,-2.673 0.489,-1.075 1.552,-1.952 2.747,-2.356 l -2.162,-3.588 c -1.627,0.588 -3.478,2.088 -4.492,4.317 -1.384,3.043 -0.608,6.694 3.396,8.523 3.219,1.471 5.567,-0.148 7.181,-1.474 1.439,-1.146 2.295,-1.707 3.446,-1.181 1.361,0.621 1.505,1.765 1.075,2.709 -0.406,0.892 -1.229,1.593 -2.25,1.89 l 2.099,3.588 c 1.642,-0.549 3.101,-1.881 4.02,-3.899 1.227,-2.703 0.845,-6.518 -3.263,-8.399 z"
           inkscape:connector-curvature="0"
           style="fill:#004c98" />
        <path
           id="path3962"
           d="m 297.046,286.213 c -0.924,1.067 -0.731,2.606 0.354,3.554 1.063,0.926 2.656,0.935 3.579,-0.135 0.94,-1.088 0.688,-2.645 -0.376,-3.57 -1.086,-0.947 -2.616,-0.938 -3.557,0.151 z"
           inkscape:connector-curvature="0"
           style="fill:#004c98" />
        <path
           id="path3964"
           d="m 163.069,314.669 c 1.985,-3.545 0.994,-6.485 -2.441,-8.422 l -5.689,-3.208 -9.967,17.805 3.859,2.176 3.97,-7.09 1.18,0.662 -1.589,8.436 4.234,2.387 1.416,-9.655 c 1.379,0.246 3.55,-0.45 5.027,-3.091 z m -4.087,-2.006 c -0.901,1.609 -2.284,1.725 -3.412,1.088 l -1.179,-0.664 2.52,-4.501 1.254,0.705 c 0.928,0.523 1.831,1.563 0.817,3.372 z"
           inkscape:connector-curvature="0"
           style="fill:#004c98" />
        <path
           id="path3966"
           d="m 175.261,312.418 c -2.769,-1.06 -6.546,-0.436 -8.156,3.792 -1.21,3.18 0.018,5.132 1.697,6.947 1.331,1.436 1.981,2.394 1.511,3.633 -0.462,1.213 -1.545,1.631 -2.593,1.229 -1.103,-0.421 -2.042,-1.43 -2.521,-2.599 l -3.435,2.388 c 0.688,1.593 2.296,3.349 4.58,4.224 3.116,1.191 6.702,0.188 8.271,-3.935 1.262,-3.313 -0.5,-5.561 -1.917,-7.091 -1.234,-1.368 -1.846,-2.188 -1.394,-3.373 0.533,-1.402 1.662,-1.617 2.63,-1.248 0.914,0.352 1.663,1.13 2.021,2.132 l 3.441,-2.325 c -0.65,-1.607 -2.066,-2.981 -4.135,-3.774 z"
           inkscape:connector-curvature="0"
           style="fill:#004c98" />
        <rect
           id="rect3968"
           height="3.4300001"
           width="5.5229998"
           transform="matrix(0.967,0.2548,-0.2548,0.967,89.6277,-35.5541)"
           y="326.47501"
           x="179.293"
           style="fill:#004c98" />
        <path
           id="path3970"
           d="m 197.536,318.628 -6.039,-0.851 -2.854,20.216 6.692,0.941 c 2.876,0.405 6.187,-0.614 6.794,-4.926 0.4,-2.826 -1.034,-4.602 -2.517,-5.217 l 0.008,-0.058 c 1.489,-0.463 2.797,-1.704 3.132,-4.073 0.619,-4.366 -2.71,-5.68 -5.216,-6.032 z m 0.326,14.344 c -0.226,1.601 -1.392,2.251 -2.731,2.063 l -1.708,-0.24 0.693,-4.911 1.652,0.232 c 1.169,0.162 2.348,1.057 2.094,2.856 z m 0.771,-8.133 c -0.226,1.601 -1.367,2.079 -2.479,1.923 l -1.565,-0.222 0.617,-4.367 1.538,0.216 c 1.166,0.166 2.111,0.881 1.889,2.45 z"
           inkscape:connector-curvature="0"
           style="fill:#004c98" />
        <path
           id="path3972"
           d="m 220.75,325.678 c -0.055,-4.063 -2.384,-6.103 -6.321,-6.037 l -6.528,0.106 0.274,20.411 4.43,-0.073 -0.109,-8.129 1.352,-0.023 2.843,8.086 4.858,-0.078 -3.603,-9.055 c 1.316,-0.483 2.845,-2.18 2.804,-5.208 z m -6.948,2.998 -1.353,0.021 -0.07,-5.159 1.438,-0.024 c 1.063,-0.017 2.363,0.425 2.393,2.499 0.026,1.843 -1.114,2.641 -2.408,2.663 z"
           inkscape:connector-curvature="0"
           style="fill:#004c98" />
        <path
           id="path3974"
           d="m 228.19,318.534 -1.317,20.961 4.534,-0.801 0.174,-3.809 4.505,-0.795 1.471,3.518 4.73,-0.837 -8.401,-19.242 z m 3.278,12.742 0.188,-8.847 0.113,-0.021 3.127,8.261 z"
           inkscape:connector-curvature="0"
           style="fill:#004c98" />
        <path
           id="path3976"
           d="m 250.547,321.559 c -1.819,-0.266 -2.812,-0.51 -3.217,-1.712 -0.478,-1.421 0.257,-2.308 1.237,-2.64 0.928,-0.313 2.002,-0.189 2.913,0.354 l 1.179,-3.989 c -1.521,-0.824 -3.487,-0.981 -5.586,-0.274 -2.809,0.95 -5.329,3.841 -3.887,8.13 1.084,3.227 3.27,3.948 5.718,4.278 1.938,0.258 3.05,0.582 3.472,1.84 0.413,1.23 -0.154,2.243 -1.219,2.604 -1.119,0.378 -2.483,0.196 -3.595,-0.399 l -1.134,4.035 c 1.538,0.789 3.896,1.119 6.215,0.336 3.162,-1.069 5.289,-4.13 3.885,-8.313 -1.13,-3.363 -3.916,-3.972 -5.981,-4.25 z"
           inkscape:connector-curvature="0"
           style="fill:#004c98" />
        <polygon
           id="polygon3978"
           points="267.757,327.394 259.217,308.853 255.014,310.799 263.554,329.341 "
           style="fill:#004c98" />
        <polygon
           id="polygon3980"
           points="275.229,318.486 267.036,304.587 263.025,306.968 273.384,324.541 282.074,319.381 279.908,315.708 "
           style="fill:#004c98" />
      </g>
      <g
         id="g3982">
        <path
           id="path3984"
           d="m 279.962,208.624 c -1.357,0 -2.691,-0.098 -3.999,-0.28 8.576,-6.403 15.862,-17.209 15.862,-26.812 0,-1.832 -0.132,-3.612 -0.375,-5.338 -2.127,-15.108 -13.259,-25.758 -28.098,-25.804 v -0.002 c -0.017,0 -0.032,0 -0.048,0 -0.017,0 -0.032,0 -0.049,0 v 0.002 c -14.839,0.046 -25.971,10.695 -28.099,25.804 -0.242,1.726 -0.374,3.506 -0.374,5.338 0,9.603 7.286,20.408 15.862,26.812 -1.309,0.183 -2.642,0.28 -3.999,0.28 -3.694,0 -7.225,-0.697 -10.475,-1.954 h -0.502 v 6.796 h 24.913 v -0.06 c 0.041,0.011 0.082,0.024 0.123,0.034 -6.014,-3.99 -13.12,-13.347 -14.539,-15.871 -2.578,-4.586 -4.104,-10.267 -4.104,-16.419 0,-15.225 9.34,-27.566 20.861,-27.566 0.057,0 0.218,0 0.379,0 0.16,0 0.321,0 0.378,0 11.521,0 20.861,12.342 20.861,27.566 0,6.152 -1.525,11.833 -4.104,16.419 -1.42,2.524 -8.525,11.88 -14.539,15.871 0.041,-0.01 0.082,-0.023 0.123,-0.034 v 0.06 h 24.913 v -6.796 h -0.502 c -3.246,1.257 -6.775,1.954 -10.469,1.954 z"
           inkscape:connector-curvature="0"
           style="fill:#ffffff" />
        <path
           id="path3986"
           d="m 180.472,199.692 -17.912,-51.945 -17.909,51.934 c -2.491,5.719 -6.681,10.527 -11.958,13.75 h 5.497 1.719 10.193 0.428 5.235 l -4.521,-6.022 2.266,-8.297 h 18.098 l 2.263,8.297 -4.541,6.022 h 5.688 1.082 9.109 3.143 4.073 c -5.273,-3.221 -9.461,-8.024 -11.953,-13.739 z m -25.522,-6.62 7.612,-31.964 7.608,31.964 z"
           inkscape:connector-curvature="0"
           style="fill:#ffffff" />
      </g>
      <path
         id="path3988"
         d="m 216.533,185.726 c -0.029,0.077 -0.058,0.152 -0.082,0.213 -0.007,-0.046 -0.01,-0.094 -0.016,-0.14 v 0 c -0.154,-1.063 -0.239,-2.147 -0.239,-3.253 0,-1.578 0.579,-5.127 0.579,-5.127 0.231,-1.299 0.374,-2.63 0.374,-3.995 0,-4.27 -1.209,-8.246 -3.265,-11.653 -0.275,5.578 -2.955,10.805 -5.788,13.845 -0.548,-0.795 -1.051,-1.622 -1.495,-2.485 -0.698,1.66 -1.201,3.42 -1.488,5.253 -0.002,0.003 -0.004,0.006 -0.008,0.008 -0.008,0.059 -0.013,0.117 -0.021,0.175 -0.02,0.129 -0.048,0.255 -0.063,0.386 h 0.017 c -0.131,0.96 -0.227,1.933 -0.227,2.93 0,2.565 0.446,5.022 1.233,7.324 h 11.944 c 1.146,-2.047 1.967,-4.293 2.435,-6.668 0.076,-0.494 0.146,-0.951 0.206,-1.381 -1.073,1.766 -2.462,3.314 -4.096,4.568 z"
         inkscape:connector-curvature="0"
         style="fill:#f6d200" />
      <path
         id="path3990"
         d="m 174.016,175.252 2.624,7.607 21.687,-1.136 c 0,-0.014 -0.001,-0.027 -0.001,-0.04 0,-1.146 0.076,-2.286 0.197,-3.423 z"
         inkscape:connector-curvature="0"
         style="fill:#a2d5ed" />
      <path
         id="path3992"
         d="m 167.531,127.081 34.047,40.576 c 0.75,-1.54 1.621,-3.02 2.604,-4.42 l -21.645,-42.479 c -5.209,1.691 -10.225,3.812 -15.006,6.323 z"
         inkscape:connector-curvature="0"
         style="fill:#a2d5ed" />
      <path
         id="path3994"
         d="m 243.93,181.151 c 0,0.499 0.021,0.994 0.043,1.489 l 38.52,2.019 c 0.115,-1.154 0.188,-2.323 0.188,-3.508 0,-3.412 -0.498,-6.667 -1.395,-9.647 l -36.979,4.541 c -0.246,1.65 -0.377,3.358 -0.377,5.106 z"
         inkscape:connector-curvature="0"
         style="fill:#a2d5ed" />
      <path
         id="path3996"
         d="m 293.689,181.532 c 0,1.232 -0.111,2.468 -0.311,3.697 l 11.868,0.622 c -1.655,-5.736 -3.828,-11.252 -6.465,-16.496 l -6.762,0.83 c 0.563,1.831 0.994,3.749 1.274,5.749 0.265,1.856 0.396,3.738 0.396,5.598 z"
         inkscape:connector-curvature="0"
         style="fill:#a2d5ed" />
      <path
         id="path3998"
         d="m 232.94,182.063 c -0.004,-0.177 -0.021,-0.354 -0.021,-0.53 0,-1.368 0.097,-2.746 0.237,-4.118 l -7.114,0.874 c 0.119,1.128 0.188,2.262 0.188,3.396 0,0.009 -10e-4,0.018 -10e-4,0.027 z"
         inkscape:connector-curvature="0"
         style="fill:#a2d5ed" />
      <path
         id="path4000"
         d="m 242.218,120.752 -21.396,41.99 c 0.131,0.556 0.253,1.115 0.354,1.68 l 0.031,0.044 0.07,0.43 c 0.247,1.516 0.367,3.04 0.397,4.547 l 35.555,-42.371 c -4.782,-2.511 -9.8,-4.631 -15.011,-6.32 z"
         inkscape:connector-curvature="0"
         style="fill:#a2d5ed" />
      <polygon
         id="polygon4002"
         points="159.079,183.779 165.957,183.419 163.711,173.987 161.478,173.712 "
         style="fill:#a2d5ed" />
      <path
         id="path4004"
         d="m 186.219,205.55 10.719,-9.996 v -1.441 -2.701 l -13.744,9.623 c 0.863,1.611 1.885,3.113 3.025,4.515 z"
         inkscape:connector-curvature="0"
         style="fill:#a2d5ed" />
      <path
         id="path4006"
         d="m 260.585,215.331 h -11.536 l 13.625,12.705 h 6.268 1.959 l -0.097,1.957 c -0.086,1.742 -0.261,3.464 -0.495,5.16 l 26.457,24.673 c 2.725,-4.862 5.038,-9.985 6.897,-15.322 l -41.662,-29.173 z"
         inkscape:connector-curvature="0"
         style="fill:#a2d5ed" />
      <path
         id="path4008"
         d="m 239.573,199.626 -11.727,-8.211 v 2.697 1.446 l 10.649,9.932 c 2.382,0.752 4.839,1.185 7.344,1.257 -2.239,-2.087 -4.384,-4.5 -6.266,-7.121 z"
         inkscape:connector-curvature="0"
         style="fill:#a2d5ed" />
      <path
         id="path4010"
         d="m 169.331,215.295 h -3.741 l 2.251,-2.986 0.834,-1.107 -47.559,33.303 c 1.859,5.335 4.175,10.46 6.898,15.322 l 26.456,-24.672 c -0.235,-1.697 -0.408,-3.416 -0.495,-5.161 l -0.098,-1.957 h 1.959 6.269 l 13.663,-12.741 h -0.751 z"
         inkscape:connector-curvature="0"
         style="fill:#a2d5ed" />
      <path
         id="path4012"
         d="m 152.035,172.554 -26.038,-3.198 c -2.635,5.244 -4.81,10.76 -6.465,16.496 l 28.431,-1.489 z"
         inkscape:connector-curvature="0"
         style="fill:#a2d5ed" />
      <g
         id="g4014">
        <rect
           id="rect4016"
           height="4.0760002"
           width="27.18"
           y="190.036"
           x="198.80299"
           style="fill:#ffffff" />
        <rect
           id="rect4018"
           height="3.474"
           width="21.139"
           y="195.627"
           x="201.823"
           style="fill:#ffffff" />
        <polygon
           id="polygon4020"
           points="214.636,291.224 212.365,288.593 210.096,291.224 210.125,295.287 214.655,295.287 "
           style="fill:#ffffff" />
        <rect
           id="rect4022"
           height="1.135"
           width="2.418"
           y="304.435"
           x="211.18401"
           style="fill:#ffffff" />
        <rect
           id="rect4024"
           height="2.6429999"
           width="9.0609999"
           y="296.81201"
           x="207.862"
           style="fill:#ffffff" />
        <polygon
           id="polygon4026"
           points="210.128,301.946 211.193,302.927 213.592,302.927 214.657,301.946 214.657,300.964 210.128,300.964 "
           style="fill:#ffffff" />
        <path
           id="path4028"
           d="m 208.044,228.036 h 8.697 c 0.673,-9.201 1.944,-18.626 3.793,-27.423 H 204.25 c 1.848,8.797 3.12,18.222 3.794,27.423 z"
           inkscape:connector-curvature="0"
           style="fill:#ffffff" />
      </g>
      <g
         id="g4030">
        <path
           id="path4032"
           d="m 267.953,279.655 c -3.166,4.238 -8.206,6.992 -13.902,6.992 -5.684,0 -10.714,-2.742 -13.882,-6.963 -3.166,4.239 -8.206,6.994 -13.901,6.994 -5.696,0 -10.737,-2.755 -13.903,-6.994 -3.169,4.221 -8.198,6.963 -13.881,6.963 -5.697,0 -10.737,-2.754 -13.904,-6.994 -3.167,4.222 -8.196,6.965 -13.88,6.965 -5.696,0 -10.737,-2.756 -13.903,-6.993 -1.999,2.662 -4.737,4.733 -7.914,5.901 1.738,1.519 3.532,2.974 5.378,4.365 0.937,-0.813 1.79,-1.724 2.536,-2.718 3.166,4.238 8.207,6.994 13.903,6.994 5.684,0 10.713,-2.743 13.881,-6.963 3.166,4.235 8.206,6.993 13.903,6.993 5.683,0 10.712,-2.742 13.88,-6.963 3.166,4.238 8.208,6.994 13.904,6.994 5.695,0 10.735,-2.756 13.901,-6.994 3.168,4.221 8.198,6.963 13.882,6.963 5.695,0 10.736,-2.756 13.902,-6.993 0.746,0.991 1.597,1.899 2.533,2.713 1.846,-1.39 3.64,-2.847 5.379,-4.362 -3.175,-1.165 -5.914,-3.238 -7.912,-5.9 z"
           inkscape:connector-curvature="0"
           style="fill:#b2d235" />
        <path
           id="path4034"
           d="m 267.953,264.558 c -3.166,4.237 -8.206,6.992 -13.902,6.992 -5.684,0 -10.714,-2.742 -13.882,-6.962 -3.166,4.237 -8.206,6.993 -13.901,6.993 -5.696,0 -10.737,-2.756 -13.903,-6.993 -3.169,4.22 -8.198,6.962 -13.881,6.962 -5.697,0 -10.737,-2.756 -13.904,-6.992 -3.167,4.219 -8.196,6.963 -13.88,6.963 -5.696,0 -10.737,-2.756 -13.903,-6.994 -3.168,4.221 -8.197,6.964 -13.881,6.964 -3.375,0 -6.516,-0.978 -9.18,-2.646 2.557,3.573 5.351,6.965 8.358,10.152 0.273,0.014 0.545,0.042 0.821,0.042 5.684,0 10.713,-2.743 13.881,-6.963 3.166,4.235 8.207,6.991 13.903,6.991 5.684,0 10.713,-2.741 13.88,-6.963 3.167,4.238 8.207,6.994 13.904,6.994 5.683,0 10.712,-2.742 13.881,-6.963 3.166,4.238 8.207,6.993 13.903,6.993 5.695,0 10.735,-2.755 13.901,-6.993 3.168,4.221 8.198,6.963 13.882,6.963 5.696,0 10.736,-2.756 13.902,-6.992 3.168,4.22 8.197,6.961 13.88,6.961 0.279,0 0.551,-0.026 0.826,-0.041 3.013,-3.19 5.813,-6.584 8.371,-10.162 -2.668,1.675 -5.813,2.654 -9.197,2.654 -5.682,0.003 -10.711,-2.742 -13.879,-6.96 z"
           inkscape:connector-curvature="0"
           style="fill:#b2d235" />
      </g>
      <path
         id="path4036"
         d="m 174.565,269.157 c 3.364,-0.864 6.357,-2.838 8.522,-5.721 l 1.494,-1.99 1.49,1.992 c 2.965,3.971 7.489,6.246 12.41,6.246 4.908,0 9.424,-2.266 12.389,-6.218 l 1.495,-1.989 1.49,1.992 c 2.966,3.971 7.489,6.246 12.41,6.246 4.921,0 9.442,-2.275 12.407,-6.246 l 1.49,-1.992 1.495,1.989 c 2.164,2.884 5.157,4.855 8.521,5.72 10.892,-9.773 17.981,-23.694 18.759,-39.287 H 155.838 c 0.777,15.579 7.855,29.487 18.727,39.258 z"
         inkscape:connector-curvature="0"
         style="fill:#faa61a" />
    </g>
    <g
       id="g9800"
       transform="translate(-667.71072,-49.614318)">
      <text
         xml:space="preserve"
         style="font-style:normal;font-variant:normal;font-weight:normal;font-stretch:normal;line-height:0%;font-family:'Arial Black';-inkscape-font-specification:'Arial Black, Normal';text-align:start;letter-spacing:0px;word-spacing:0px;writing-mode:lr-tb;text-anchor:start;fill:#070707;fill-opacity:1;stroke:none;stroke-width:1px;stroke-linecap:butt;stroke-linejoin:miter;stroke-opacity:1"
         x="-368.81635"
         y="110.45267"
         id="text7635"><tspan
           style="font-style:normal;font-variant:normal;font-weight:bold;font-stretch:normal;font-size:99.9792px;line-height:1.25;font-family:'Bitstream Vera Serif';-inkscape-font-specification:'Bitstream Vera Serif Bold';fill:#070707;fill-opacity:1"
           y="110.45267"
           x="-368.81635"
           id="tspan7645"
           sodipodi:role="line">DME</tspan></text>
      <text
         xml:space="preserve"
         style="font-style:normal;font-variant:normal;font-weight:normal;font-stretch:normal;line-height:0%;font-family:'Arial Black';-inkscape-font-specification:'Arial Black, Normal';text-align:start;letter-spacing:0px;word-spacing:0px;writing-mode:lr-tb;text-anchor:start;fill:#004c98;fill-opacity:1;stroke:none;stroke-width:1px;stroke-linecap:butt;stroke-linejoin:miter;stroke-opacity:1"
         x="-368.28125"
         y="160.25798"
         id="text7647"><tspan
           style="font-style:normal;font-variant:normal;font-weight:bold;font-stretch:normal;font-size:45.224px;line-height:1.25;font-family:'Bitstream Vera Sans';-inkscape-font-specification:'Bitstream Vera Sans Bold';fill:#004c98;fill-opacity:1"
           y="160.25798"
           x="-368.28125"
           id="tspan7663"
           sodipodi:role="line">UFPel</tspan></text>
      <rect
         y="-14.070472"
         x="-369.36469"
         height="7.5"
         width="234.375"
         id="rect7683"
         style="display:none;fill:#c4161c;fill-opacity:1;stroke:none;stroke-width:0.42342;stroke-miterlimit:4;stroke-dasharray:0.42342, 0.846844;stroke-dashoffset:0;stroke-opacity:1" />
    </g>
  </g>
</svg>
